<svg width="150" height="150" viewBox="0 0 150 150" fill="none" xmlns="http://www.w3.org/2000/svg">
<path fill-rule="evenodd" clip-rule="evenodd" d="M62.6015 19.8908C64.9319 19.353 66.1292 18.2361 65.6397 16.1207C65.1515 14.0039 63.5498 13.5024 61.3406 14.012L57.7527 14.8403L59.1053 20.699L62.6015 19.8908ZM60.5022 10.943C62.4348 10.4963 63.4192 9.30035 62.9792 7.39924C62.4763 5.22089 61.1243 4.82379 59.0082 5.31196L55.6654 6.08406L56.9759 11.7579L60.5022 10.943ZM51.1091 3.84142L58.4384 2.14857C63.0388 1.08517 65.9404 2.7412 66.8056 6.48249C67.2455 8.38428 66.75 10.0169 65.1315 11.2624C67.4457 11.6327 69.0181 12.9814 69.535 15.2207C70.5402 19.576 67.4344 22.0698 63.3864 23.0053L55.9339 24.7262L51.1091 3.84142Z" fill="#282828"/>
<mask id="mask0" mask-type="alpha" maskUnits="userSpaceOnUse" x="73" y="0" width="5" height="22">
<path fill-rule="evenodd" clip-rule="evenodd" d="M73.4556 0.314087H77.6844V21.7907H73.4556V0.314087Z" fill="white"/>
</mask>
<g mask="url(#mask0)">
<path fill-rule="evenodd" clip-rule="evenodd" d="M73.7194 0.313965L77.6844 0.362849L77.4199 21.7908L73.4556 21.7425L73.7194 0.313965Z" fill="#282828"/>
</g>
<path fill-rule="evenodd" clip-rule="evenodd" d="M94.2717 24.9393L81.2632 21.8254L86.2534 0.981445L99.2612 4.09595L98.3893 7.73814L89.2078 5.54037L88.0353 10.4368L95.9926 12.3419L94.1163 15.4524L87.2284 13.8044L85.9614 19.0993L95.1442 21.2971L94.2717 24.9393Z" fill="#282828"/>
<path fill-rule="evenodd" clip-rule="evenodd" d="M110.574 9.35608L110.412 26.8927L118.373 14.2759L121.646 16.3425L110.209 34.4677L107.069 32.4862L107.288 14.7996L99.2435 27.5489L95.9429 25.4663L107.38 7.34045L110.574 9.35608Z" fill="#282828"/>
<path fill-rule="evenodd" clip-rule="evenodd" d="M128.051 21.9465L130.629 25.2847L120.94 39.3633L137.033 33.5809L139.437 36.6941L117.99 43.9872L115.585 40.8733L128.051 21.9465Z" fill="#282828"/>
<path fill-rule="evenodd" clip-rule="evenodd" d="M127.149 63.6912L122.598 51.1133L142.752 43.8196L147.304 56.3975L143.782 57.6725L140.569 48.7937L135.833 50.508L138.618 58.2022L134.988 58.3441L132.578 51.6852L127.459 53.5388L130.671 62.4169L127.149 63.6912Z" fill="#282828"/>
<mask id="mask1" mask-type="alpha" maskUnits="userSpaceOnUse" x="127" y="64" width="23" height="19">
<path fill-rule="evenodd" clip-rule="evenodd" d="M127.646 64.9519H149.409V82.2434H127.646V64.9519Z" fill="white"/>
</mask>
<g mask="url(#mask1)">
<path fill-rule="evenodd" clip-rule="evenodd" d="M149.15 68.728L134.416 78.243L149.332 77.949L149.409 81.8195L127.979 82.2434L127.905 78.5296L142.796 68.9791L127.723 69.2771L127.646 65.3758L149.076 64.9519L149.15 68.728Z" fill="#282828"/>
</g>
<path fill-rule="evenodd" clip-rule="evenodd" d="M147.531 90.8782L146.572 94.7259L125.776 89.5422L126.735 85.6945L147.531 90.8782Z" fill="#282828"/>
<path fill-rule="evenodd" clip-rule="evenodd" d="M128.751 108.989C134.276 111.945 136.491 109.738 137.694 107.49L138.926 105.185L126.381 98.4743L125.178 100.722C124.064 102.804 123.173 106.004 128.751 108.989ZM126.95 112.559C120.342 109.025 119.134 104.344 122 98.9872L125.045 93.2972L143.947 103.409L140.902 109.099C137.947 114.623 133.389 116.004 126.95 112.559Z" fill="#282828"/>
<path fill-rule="evenodd" clip-rule="evenodd" d="M112.88 126.245C116.035 129.8 119.441 130.607 122.078 128.267C124.715 125.928 124.345 122.428 121.191 118.872C118.038 115.317 114.649 114.578 112.011 116.918C109.375 119.257 109.726 122.689 112.88 126.245ZM124.206 116.199C128.821 121.403 128.886 127.025 124.459 130.951C120.056 134.856 114.506 134.1 109.89 128.897C105.295 123.717 105.207 118.116 109.61 114.211C114.036 110.284 119.611 111.019 124.206 116.199Z" fill="#282828"/>
<path fill-rule="evenodd" clip-rule="evenodd" d="M90.1885 138.436C88.2653 138.918 87.3037 140.132 87.7771 142.025C88.3202 144.193 89.6782 144.566 91.7863 144.039L95.1137 143.206L93.7001 137.558L90.1885 138.436ZM87.9271 129.529C85.6068 130.109 84.4316 131.247 84.9579 133.354C85.4863 135.46 87.0974 135.934 89.2952 135.383L92.8677 134.489L91.4072 128.657L87.9271 129.529ZM99.7095 145.366L92.4117 147.192C87.832 148.338 84.901 146.736 83.9688 143.011C83.4947 141.117 83.9595 139.476 85.5559 138.201C83.2336 137.873 81.6392 136.553 81.0807 134.324C79.9952 129.988 83.0568 127.438 87.0867 126.429L94.5063 124.573L99.7095 145.366Z" fill="#666666"/>
<mask id="mask2" mask-type="alpha" maskUnits="userSpaceOnUse" x="73" y="127" width="5" height="23">
<path fill-rule="evenodd" clip-rule="evenodd" d="M73.0383 127.88H77.1232V149.33H73.0383V127.88Z" fill="white"/>
</mask>
<g mask="url(#mask2)">
<path fill-rule="evenodd" clip-rule="evenodd" d="M77.1232 149.308L73.1582 149.331L73.0383 127.901L77.0033 127.88L77.1232 149.308Z" fill="#666666"/>
</g>
<path fill-rule="evenodd" clip-rule="evenodd" d="M56.1381 125.054L69.1974 127.937L64.5789 148.864L51.5195 145.981L52.3265 142.324L61.5454 144.359L62.6302 139.442L54.6407 137.679L56.4622 134.535L63.3769 136.062L64.5501 130.746L55.3305 128.711L56.1381 125.054Z" fill="#666666"/>
<path fill-rule="evenodd" clip-rule="evenodd" d="M40.1058 140.921L39.9565 123.385L32.2221 136.139L28.9114 134.132L40.0254 115.808L43.2009 117.734L43.2946 135.42L51.112 122.532L54.4475 124.555L43.3348 142.879L40.1058 140.921Z" fill="#666666"/>
<path fill-rule="evenodd" clip-rule="evenodd" d="M22.4236 128.652L19.7865 125.361L29.2205 111.111L13.2347 117.181L10.7751 114.109L32.0892 106.434L34.5481 109.505L22.4236 128.652Z" fill="#666666"/>
<path fill-rule="evenodd" clip-rule="evenodd" d="M22.5734 86.8757L27.3413 99.3739L7.31424 107.015L2.54639 94.5157L6.04527 93.1811L9.41223 102.004L14.1171 100.208L11.1995 92.5623L14.8276 92.3574L17.3522 98.9742L22.4401 97.0329L19.0732 88.211L22.5734 86.8757Z" fill="#666666"/>
<path fill-rule="evenodd" clip-rule="evenodd" d="M0.494196 82.2556L15.0516 72.4774L0.145313 73.0413L0 69.1734L21.4145 68.3632L21.5545 72.0743L6.84174 81.8893L21.9047 81.3201L22.052 85.2194L0.63683 86.029L0.494196 82.2556Z" fill="#666666"/>
<path fill-rule="evenodd" clip-rule="evenodd" d="M1.71899 60.0377L2.61163 56.1732L23.4965 61L22.6031 64.8645L1.71899 60.0377Z" fill="#666666"/>
<path fill-rule="evenodd" clip-rule="evenodd" d="M20.1722 41.6244C14.5988 38.7684 12.4231 41.013 11.2599 43.2818L10.0693 45.6061L22.7289 52.0943L23.8921 49.8255C24.9682 47.7242 25.8025 44.5099 20.1722 41.6244ZM21.9113 38.0244C28.5769 41.4409 29.8686 46.0983 27.099 51.5037L24.1559 57.2458L5.08179 47.4717L8.02286 41.7295C10.8802 36.1554 15.413 34.6943 21.9113 38.0244Z" fill="#666666"/>
<path fill-rule="evenodd" clip-rule="evenodd" d="M34.5446 29.0359L26.0595 24.6866L30.1658 33.2915L34.5446 29.0359ZM37.6825 30.6391L31.6792 36.4737L33.7102 40.7326L30.7986 43.5618L21.4343 22.7728L24.3011 19.9871L44.8149 29.9393L41.9033 32.7685L37.6825 30.6391Z" fill="#666666"/>
</svg>
