<svg xmlns="http://www.w3.org/2000/svg" viewBox="0 0 1565.73 512.4"><defs><style>.cls-1{fill:none;stroke:#ff8983;stroke-miterlimit:10;}</style></defs><g id="Capa_2" data-name="Capa 2"><g id="Layer_1" data-name="Layer 1"><path class="cls-1" d="M258.66,426.94v85H.5V141H258.66v85H114.87v55H237.42l-20.7,79.51H114.87v66.45Z"/><path class="cls-1" d="M309.3,511.9V141H456.9q74.61,0,111.38,31.05T605,263q0,63.72-36.76,96.68T456.9,392.63H423.68V511.9ZM421,309.84h27.78q21.24,0,32.95-12.25t11.71-34q0-19.06-11.71-29.41t-32.95-10.35H421Z"/><path class="cls-1" d="M857.75,511.9l-17.42-58.82H726L709.07,511.9H594.69L724.86,141H842.5L972.13,511.9ZM749.92,370.3h66.44L783.14,257.56Z"/><path class="cls-1" d="M1009.16,141h114.37V419.31h141.06V511.9H1009.16Z"/><path class="cls-1" d="M1565.23,426.94v85H1307.08V141h258.15v85H1421.45v55H1544l-20.69,79.51H1421.45v66.45Z"/><polygon class="cls-1" points="90.06 107.93 90.06 42.03 210.97 0.64 231.12 61.64 90.06 107.93"/></g></g></svg>