<svg xmlns="http://www.w3.org/2000/svg" viewBox="0 0 1440.67 390.42"><defs><style>.cls-1{fill:none;stroke:#ff8983;stroke-miterlimit:10;}</style></defs><g id="Capa_2" data-name="Capa 2"><g id="Layer_1" data-name="Layer 1"><path class="cls-1" d="M114.87,380.66H.5V9.76H114.87V138.29H217.81V9.76H332.19v370.9H217.81V230.88H114.87Z"/><path class="cls-1" d="M562.56,389.92q-87.15,0-135.07-50.93T379.56,195.48q0-93.13,47.93-144.06T562.56.5q87.69,0,135.35,50.92t47.65,144.06q0,92.6-47.65,143.51T562.56,389.92Zm0-93.68q68.63,0,68.63-100.76,0-101.29-68.63-101.3t-68.62,101.3Q493.94,296.25,562.56,296.24Z"/><path class="cls-1" d="M792.39,9.76H906.77V288.07h142.15l-21.79,92.59H792.39Z"/><path class="cls-1" d="M1325.6,380.66l-17.43-58.82H1193.79l-16.88,58.82H1062.54L1192.7,9.76h117.65L1440,380.66ZM1217.76,239.05h66.44L1251,126.31Z"/></g></g></svg>