<svg width="18" height="18" viewBox="0 0 18 18" fill="none" xmlns="http://www.w3.org/2000/svg">
<path fill-rule="evenodd" clip-rule="evenodd" d="M13.5649 1.23317C12.1659 0.411054 10.6442 0 9 0C7.37018 0 5.85578 0.411054 4.45673 1.23317C3.10096 2.02645 2.02645 3.10096 1.23317 4.45673C0.411054 5.85578 0 7.37018 0 9C0 10.6298 0.411054 12.1442 1.23317 13.5433C2.01202 14.899 3.07932 15.9736 4.4351 16.7668C5.83414 17.5889 7.35576 18 9 18C10.6442 18 12.1659 17.5889 13.5649 16.7668C14.9207 15.988 15.988 14.9207 16.7668 13.5649C17.5889 12.1659 18 10.6442 18 9C18 7.35576 17.5889 5.83414 16.7668 4.4351C15.988 3.07932 14.9207 2.01202 13.5649 1.23317ZM12.6346 15.2308C11.5096 15.8942 10.2981 16.226 9 16.226C7.70192 16.226 6.49039 15.8942 5.36538 15.2308C4.26923 14.5962 3.40385 13.7308 2.76923 12.6346C2.10577 11.5096 1.77404 10.2981 1.77404 9C1.77404 7.70192 2.10577 6.49039 2.76923 5.36538C3.40385 4.26923 4.26923 3.40385 5.36538 2.76923C6.49039 2.10577 7.70192 1.77404 9 1.77404C10.2981 1.77404 11.5096 2.10577 12.6346 2.76923C13.7308 3.40385 14.5962 4.26923 15.2308 5.36538C15.8942 6.49039 16.226 7.70192 16.226 9C16.226 10.2981 15.8942 11.5096 15.2308 12.6346C14.5962 13.7308 13.7308 14.5962 12.6346 15.2308ZM9.88702 4.47837V9.88702H8.11298V4.47837H9.88702ZM9.88702 13.5216V11.7043H8.11298V13.5216H9.88702Z" fill="#FF3C45"/>
</svg>
