<svg xmlns="http://www.w3.org/2000/svg" viewBox="0 0 1645.8 1022.31"><defs><style>.cls-1{fill:none;stroke:#ff8983;stroke-miterlimit:10;}</style></defs><g id="Capa_2" data-name="Capa 2"><g id="Layer_1" data-name="Layer 1"><path class="cls-1" d="M307.68,187.21q14.7,15,14.7,38.4,0,24-14.7,38.66T269,279q-23.43,0-38.4-14.71t-15-38.66q0-23.42,15-38.4t38.4-15Q293,172.23,307.68,187.21ZM318,306.76V551.84H219.45V306.76Z"/><path class="cls-1" d="M690,592.93l-136.7-80.06q-85.51-1.64-132.08-52.28T374.67,318.44q0-93.13,47.92-144.06t135.07-50.93q87.69,0,135.35,50.93t47.65,144.06q0,56.64-18.24,98t-52.56,65.36L742.3,520ZM557.66,419.19q68.63,0,68.63-100.75,0-101.31-68.63-101.31T489,318.44Q489,419.2,557.66,419.19Z"/><path class="cls-1" d="M894.79,132.71V350.57q0,68.63,51.75,68.62,51.18,0,51.19-68.62V132.71h114.38V350.57q0,80.06-41.94,121.18T946.54,512.87q-81.7,0-123.91-41.12T780.42,350.57V132.71Z"/><polygon class="cls-1" points="1427.99 418.65 1427.99 503.61 1169.83 503.61 1169.83 132.71 1427.99 132.71 1427.99 217.68 1284.2 217.68 1284.2 272.69 1406.75 272.69 1386.05 352.2 1284.2 352.2 1284.2 418.65 1427.99 418.65"/><path class="cls-1" d="M183.5,1021.81q-87.15,0-135.07-50.93T.5,827.37q0-93.14,47.93-144T183.5,632.39q87.67,0,135.34,50.93t47.66,144q0,92.6-47.66,143.51T183.5,1021.81Zm0-93.68q68.63,0,68.62-100.76,0-101.29-68.62-101.3t-68.63,101.3Q114.87,928.14,183.5,928.13Z"/><path class="cls-1" d="M413.33,641.65h101.3L633.37,838.81V641.65H742.29v370.9H642.08L522.26,813.21v199.34H413.33Z"/><path class="cls-1" d="M937.81,641.65q91.5,0,138.61,47.66t47.11,138.61q0,92-47.11,138.34t-138.61,46.29H806.55V641.65Zm3.27,283.21q33.76,0,50.92-24.78t17.16-72.16q0-98.58-67-98.58h-24V924.86Z"/><path class="cls-1" d="M1394.77,1012.55l-17.43-58.82H1263l-16.89,58.82H1131.71l130.17-370.9h117.64l129.62,370.9ZM1286.93,870.94h66.45L1320.15,758.2Z"/><path class="cls-1" d="M1591.92,1021.81q-23.42,0-38.39-15t-15-38.4q0-24,15-38.67t38.39-14.7q24,0,38.67,14.7t14.71,38.67q0,23.43-14.71,38.4T1591.92,1021.81Zm-49.56-134.53V642.2h98.58V887.28Z"/><polygon class="cls-1" points="1232.47 107.93 1232.47 42.03 1353.38 0.64 1373.53 61.64 1232.47 107.93"/></g></g></svg>