<svg xmlns="http://www.w3.org/2000/svg" viewBox="0 0 1501.31 1028.03"><defs><style>.cls-1{fill:none;stroke:#ff8983;stroke-miterlimit:10;}</style></defs><g id="Capa_2" data-name="Capa 2"><g id="Layer_1" data-name="Layer 1"><path class="cls-1" d="M232.73,176.52q14.72,15,14.71,38.4,0,24-14.71,38.67t-38.66,14.7q-23.43,0-38.4-14.7t-15-38.67q0-23.41,15-38.4t38.4-15Q218,161.54,232.73,176.52Zm10.35,119.55V541.16H144.5V296.07Z"/><path class="cls-1" d="M622.64,599.2,485.93,519.13q-85.51-1.64-132.07-52.28T307.29,324.7q0-93.13,47.93-144.06t135.07-50.92q87.69,0,135.34,50.92T673.29,324.7q0,56.64-18.25,98t-52.55,65.36l72.43,38.12ZM490.29,425.46q68.62,0,68.62-100.76,0-101.31-68.62-101.31T421.67,324.7Q421.67,425.46,490.29,425.46Z"/><path class="cls-1" d="M827.42,139V356.83q0,68.63,51.74,68.63,51.2,0,51.2-68.63V139h114.37V356.83q0,80.07-41.94,121.18T879.16,519.13q-81.69,0-123.9-41.12T713.05,356.83V139Z"/><path class="cls-1" d="M1360.62,424.91v85H1102.46V139h258.16v85H1216.83v55h122.55l-20.7,79.51H1216.83v66.45ZM1170,107.93V42L1290.9.64l20.15,61Z"/><path class="cls-1" d="M1447.43,1022.9q-23.42,0-38.39-15t-15-38.4q0-24,15-38.67t38.39-14.7q24,0,38.67,14.7t14.71,38.67q0,23.43-14.71,38.4T1447.43,1022.9Zm-49.56-134.53V643.28h98.58V888.37Z"/><path class="cls-1" d="M.5,1018.81V647.91H148.1q74.61,0,111.38,31.05t36.76,90.95q0,63.72-36.76,96.67t-111.38,33H114.87v119.27ZM112.15,816.75h27.78q21.24,0,32.95-12.25t11.71-34q0-19.07-11.71-29.42T139.93,730.7H112.15Z"/><path class="cls-1" d="M549,1018.81,531.52,960H417.15l-16.89,58.82H285.89l130.17-370.9H533.7l129.62,370.9ZM441.11,877.21h66.45L474.33,764.46Z"/><path class="cls-1" d="M830.52,1027.53q-43,0-79.52-11.71A285.12,285.12,0,0,1,684.56,985l32.13-88.77q26.68,18,51.47,28.05t46.57,10.07q17.41,0,29.68-5.17t12.25-20.43q0-11.43-15.25-23.41t-55.55-28.33q-39.76-16.34-64.81-41.93t-25-70.81q0-33.76,17.15-57.18t47.66-36q30.5-12.52,70.26-12.53a257,257,0,0,1,64,8.17,225.38,225.38,0,0,1,60.73,25.6l-35.4,82.79A304.86,304.86,0,0,0,884.71,740q-21-7.62-46.56-7.63-17.45,0-25.06,4.09t-7.62,13.34A18.32,18.32,0,0,0,809.83,762q4.35,5.19,17.7,11.44t40,18.25q58.28,25,81.15,55.28t22.87,67.26q0,39.76-18,64.81t-49.83,36.77Q871.91,1027.52,830.52,1027.53Z"/><path class="cls-1" d="M1250.43,1018.81,1233,960H1118.63l-16.88,58.82H987.37l130.17-370.9h117.64l129.63,370.9ZM1142.6,877.21H1209l-33.22-112.75Z"/></g></g></svg>