<svg width="413" height="407" viewBox="0 0 413 407" fill="none" xmlns="http://www.w3.org/2000/svg">
<mask id="mask0" mask-type="alpha" maskUnits="userSpaceOnUse" x="0" y="0" width="778" height="774">
<g clip-path="url(#clip0)">
<path d="M0.34236 0.00600027L0 0.599121L76.5722 44.8182L76.9146 44.2251L0.34236 0.00600027Z" fill="#FFBFBD"/>
<path d="M102.439 58.9644L102.096 59.5574L127.613 74.3048L127.956 73.7118L102.439 58.9644Z" fill="#FFBFBD"/>
<path d="M153.485 88.4494L153.143 89.0425L204.193 118.523L204.535 117.93L153.485 88.4494Z" fill="#FFBFBD"/>
<path d="M25.8819 132.654L25.5393 133.247L102.096 177.493L102.439 176.9L25.8819 132.654Z" fill="#FFBFBD"/>
<path d="M153.145 206.963L204.19 236.44L229.717 251.185L230.059 250.589L204.533 235.851L153.487 206.367L127.961 191.628L127.618 192.224L153.145 206.963Z" fill="#FFBFBD"/>
<path d="M0.34529 29.4845L0.00292969 30.0776L25.525 44.8162L25.8674 44.2231L0.34529 29.4845Z" fill="#FFBFBD"/>
<path d="M51.39 58.9672L51.0476 59.5603L153.148 118.521L153.49 117.928L51.39 58.9672Z" fill="#FFBFBD"/>
<path d="M179.013 132.667L178.671 133.256L204.19 148.002L255.243 177.479L255.586 176.89L204.533 147.406L179.013 132.667Z" fill="#FFBFBD"/>
<path d="M51.3858 0.00282645L51.0435 0.595947L153.144 59.557L153.486 58.9639L51.3858 0.00282645Z" fill="#FFBFBD"/>
<path d="M178.671 74.2953L204.19 89.0339L306.289 148.002L306.631 147.406L204.533 88.4449L179.013 73.6995L178.671 74.2953Z" fill="#FFBFBD"/>
<path d="M127.402 14.6222L127.06 15.218L178.344 44.6985L178.686 44.1027L127.402 14.6222Z" fill="#FFBFBD"/>
<path d="M0.339675 58.9638L-0.00268555 59.5569L76.5695 103.776L76.9119 103.183L0.339675 58.9638Z" fill="#FFBFBD"/>
<path d="M102.439 117.926L102.097 118.519L178.669 162.738L179.011 162.145L102.439 117.926Z" fill="#FFBFBD"/>
<path d="M0.34236 88.4491L0 89.0422L102.1 148.003L102.443 147.41L0.34236 88.4491Z" fill="#FFBFBD"/>
<path d="M127.618 162.74L204.19 206.963L280.77 251.185L281.112 250.59L204.533 206.367L127.961 162.145L127.618 162.74Z" fill="#FFBFBD"/>
<path d="M0.344558 147.411L0.00219727 148.004L51.0523 177.484L51.3947 176.891L0.344558 147.411Z" fill="#FFBFBD"/>
<path d="M77.0885 191.762L76.7461 192.358L102.385 207.097L102.728 206.501L77.0885 191.762Z" fill="#FFBFBD"/>
<path d="M204.533 0.00184983L204.19 0.594971L280.763 44.8141L281.105 44.2209L204.533 0.00184983Z" fill="#FFBFBD"/>
<path d="M306.623 58.9549L306.28 59.5479L331.797 74.2953L332.14 73.7023L306.623 58.9549Z" fill="#FFBFBD"/>
<path d="M357.342 89.0338L408.388 118.518L471.369 154.885L471.711 154.296L369.612 95.3347L357.684 88.4448L357.342 89.0338Z" fill="#FFBFBD"/>
<path d="M230.062 132.65L229.72 133.243L306.276 177.489L306.619 176.896L230.062 132.65Z" fill="#FFBFBD"/>
<path d="M229.717 44.8183L230.059 44.2225L204.533 29.484L153.487 0L153.145 0.588994L204.19 30.0729L229.717 44.8183Z" fill="#FFBFBD"/>
<path d="M255.581 58.963L255.238 59.5562L357.339 118.517L357.681 117.924L255.581 58.963Z" fill="#FFBFBD"/>
<path d="M255.583 -0.00156809L255.241 0.591553L357.341 59.5526L357.684 58.9595L255.583 -0.00156809Z" fill="#FFBFBD"/>
<path d="M382.861 44.8115L394.796 51.7013L395.138 51.1123L369.612 36.3669V36.3738L332.158 14.7385L331.815 15.3344L382.861 44.8183V44.8115Z" fill="#FFBFBD"/>
<path d="M408.388 30.0729L445.842 51.7014L446.185 51.1124L369.612 6.88986L357.684 0L357.342 0.588994L408.388 30.0729Z" fill="#FFBFBD"/>
<path d="M204.53 58.9594L204.188 59.5525L280.76 103.772L281.102 103.178L204.53 58.9594Z" fill="#FFBFBD"/>
<path d="M281.276 190.945L280.933 191.541L306.573 206.28L306.915 205.684L281.276 190.945Z" fill="#FFBFBD"/>
<path d="M0.342849 206.366L0.000488281 206.959L76.5727 251.179L76.915 250.585L0.342849 206.366Z" fill="#FFBFBD"/>
<path d="M102.444 265.322L102.101 265.915L127.618 280.662L127.961 280.069L102.444 265.322Z" fill="#FFBFBD"/>
<path d="M153.485 294.81L153.143 295.403L204.193 324.883L204.536 324.29L153.485 294.81Z" fill="#FFBFBD"/>
<path d="M153.145 413.33L153.487 412.741L102.441 383.257L25.8687 339.035L25.5264 339.631L51.0459 354.369L127.618 398.592L153.145 413.33Z" fill="#FFBFBD"/>
<path d="M0.345778 235.845L0.00341797 236.438L25.5255 251.176L25.8679 250.583L0.345778 235.845Z" fill="#FFBFBD"/>
<path d="M51.3966 265.331L51.0542 265.924L153.154 324.885L153.497 324.292L51.3966 265.331Z" fill="#FFBFBD"/>
<path d="M153.145 265.924L153.487 265.335L51.3883 206.367L0.34236 176.89L0 177.479L51.0459 206.963L153.145 265.924Z" fill="#FFBFBD"/>
<path d="M127.967 221.111L127.625 221.704L178.675 251.185L179.017 250.592L127.967 221.111Z" fill="#FFBFBD"/>
<path d="M0.346022 265.334L0.00366211 265.927L76.5759 310.146L76.9182 309.553L0.346022 265.334Z" fill="#FFBFBD"/>
<path d="M0.342849 294.809L0.000488281 295.403L102.101 354.364L102.443 353.77L0.342849 294.809Z" fill="#FFBFBD"/>
<path d="M102.099 413.33L127.618 428.068L127.961 427.479L102.441 412.741L76.9147 397.995L51.3883 383.257L0.34236 353.773L0 354.369L76.5723 398.591L102.099 413.33Z" fill="#FFBFBD"/>
<path d="M306.634 265.319L306.292 265.912L331.809 280.66L332.151 280.067L306.634 265.319Z" fill="#FFBFBD"/>
<path d="M255.587 265.327L255.245 265.92L357.345 324.881L357.687 324.288L255.587 265.327Z" fill="#FFBFBD"/>
<path d="M357.342 265.924L357.684 265.335L255.586 206.367L204.533 176.89L204.19 177.479L255.243 206.963L357.342 265.924Z" fill="#FFBFBD"/>
<path d="M382.861 251.178L394.796 258.068L395.138 257.479L369.612 242.741L332.158 221.112L331.815 221.701L382.861 251.185V251.178Z" fill="#FFBFBD"/>
<path d="M408.388 236.44L445.842 258.068L446.184 257.479L369.612 213.257L357.684 206.367L332.158 191.628L331.815 192.224L357.342 206.963L408.388 236.44Z" fill="#FFBFBD"/>
<path d="M204.537 265.33L204.194 265.923L280.767 310.142L281.109 309.549L204.537 265.33Z" fill="#FFBFBD"/>
<path d="M306.289 354.369L306.631 353.773L204.533 294.812L179.013 280.073L178.671 280.662L204.19 295.408L306.289 354.369Z" fill="#FFBFBD"/>
<path d="M204.533 353.773L179.013 339.035L178.671 339.631L204.19 354.369L280.77 398.592L306.289 413.33L331.816 428.069L332.158 427.48L306.631 412.741L281.112 397.996L255.586 383.257L204.533 353.773Z" fill="#FFBFBD"/>
<path d="M395.139 139.557L383.204 132.667L382.862 133.256L408.388 148.002V147.995L471.369 184.369L471.711 183.773L395.139 139.557Z" fill="#FFBFBD"/>
<path d="M369.27 66.4467L382.862 74.2954L408.388 89.0339L445.842 110.669L446.184 110.073L369.612 65.8508L369.27 66.4467Z" fill="#FFBFBD"/>
<path d="M369.612 154.296L306.631 117.929L306.289 118.518L382.861 162.74L420.322 184.369L420.665 183.773L369.612 154.296Z" fill="#FFBFBD"/>
<path d="M369.612 183.773V183.78L332.158 162.145L331.815 162.74L408.388 206.963L420.322 213.853L522.414 272.814L522.757 272.218L420.665 213.257L369.612 183.773Z" fill="#FFBFBD"/>
<path d="M471.711 390.147L395.139 345.925L383.204 339.035L382.862 339.631L408.388 354.369L420.323 361.259L522.414 420.22L522.757 419.631L497.237 404.886L471.711 390.147Z" fill="#FFBFBD"/>
<path d="M369.27 272.814L382.862 280.663L408.388 295.408V295.401L445.842 317.036L446.184 316.441L369.612 272.218L369.27 272.814Z" fill="#FFBFBD"/>
<path d="M369.612 301.702L357.684 294.812L357.342 295.408L408.388 324.885L471.369 361.259L471.711 360.663L369.612 301.702Z" fill="#FFBFBD"/>
<path d="M25.5264 398.591L51.0459 413.33L153.145 472.291L153.487 471.702L51.3883 412.741L0.34236 383.257L0 383.853L25.5264 398.591Z" fill="#FFBFBD"/>
<path d="M178.671 398.591L204.19 413.33L280.77 457.553L281.112 456.964L204.533 412.741L127.961 368.519L127.618 369.108L178.671 398.591Z" fill="#FFBFBD"/>
<path d="M153.145 354.369L204.19 383.853L229.717 398.591L255.243 413.33L357.342 472.291L357.684 471.702L255.586 412.741L204.533 383.257L179.013 368.518L102.441 324.296L102.099 324.885L153.145 354.369Z" fill="#FFBFBD"/>
<path d="M357.684 412.741L306.631 383.257L230.059 339.035L229.717 339.631L255.243 354.369L331.816 398.592L357.342 413.33L357.684 412.741Z" fill="#FFBFBD"/>
<path d="M382.861 398.591L408.388 413.33L420.322 420.22L522.414 479.181L522.757 478.592L420.665 419.631L395.138 404.886L369.612 390.147L332.158 368.519L331.815 369.108L382.861 398.591Z" fill="#FFBFBD"/>
<path d="M357.342 354.369L408.388 383.853V383.846L445.842 405.481L471.368 420.22L496.895 434.958L497.237 434.369L471.711 419.631L446.184 404.885L420.665 390.147L369.612 360.663V360.67L306.631 324.296L306.289 324.885L357.342 354.369Z" fill="#FFBFBD"/>
</g>
</mask>
<g mask="url(#mask0)">
<circle cx="387" cy="407" r="319" fill="#FFBFBD"/>
</g>
<defs>
<clipPath id="clip0">
<rect width="778" height="774" fill="white"/>
</clipPath>
</defs>
</svg>
