<svg xmlns="http://www.w3.org/2000/svg" xmlns:xlink="http://www.w3.org/1999/xlink" viewBox="0 0 37.32 37.32"><defs><style>.cls-1{fill:none;}.cls-2{fill:#fff;}.cls-3{clip-path:url(#clip-path);}.cls-4{fill:#f0bc50;}.cls-5{fill:#7b371d;}.cls-6{fill:#7ea5d7;}</style><clipPath id="clip-path"><rect class="cls-1" x="7.73" y="8.28" width="22.03" height="20.89"/></clipPath></defs><g id="Capa_2" data-name="Capa 2"><g id="Layer_1" data-name="Layer 1"><path class="cls-2" d="M0,18.66a18.67,18.67,0,0,0,1.53,7.41H35.79A18.61,18.61,0,0,0,36,11.82H1.31A18.54,18.54,0,0,0,0,18.66Z"/><g class="cls-3"><path class="cls-4" d="M18.08,18.94l.22,5.83s0,.11.07.11.07-.11.07-.11l.22-5.83Z"/><path class="cls-5" d="M18.37,24.9c-.07,0-.09-.09-.09-.13l-.22-5.83h0l.22,5.83s0,.09.05.09.06-.09.06-.09l.22-5.83-.19,5.83s0,.13-.09.13Z"/><polygon class="cls-5" points="18.22 18.94 18.37 22.94 18.52 18.94 18.22 18.94"/><path class="cls-4" d="M17.82,20.83c-.34.73-.05,1.33-.38,2a2.5,2.5,0,0,0-.15,1.46c0,.29-.26.37-.2.45s.31-.07.41-.46-.14-.62.26-1.4.09-1.14.49-1.84Z"/><path class="cls-5" d="M17.15,24.74l-.08,0s0-.09.05-.14a.53.53,0,0,0,.15-.33.88.88,0,0,0,0-.27,1.91,1.91,0,0,1,.17-1.19,2,2,0,0,0,.19-.94,2.48,2.48,0,0,1,.2-1h0a2.44,2.44,0,0,0-.19,1,2.38,2.38,0,0,1-.19,1A1.83,1.83,0,0,0,17.29,24c0,.11,0,.21,0,.29a.6.6,0,0,1-.17.35c0,.05-.05.07,0,.08s.31-.16.38-.45a1.11,1.11,0,0,0,0-.36,1.78,1.78,0,0,1,.25-1A2.16,2.16,0,0,0,18,21.9a1.87,1.87,0,0,1,.24-.9,2.27,2.27,0,0,0-.21.9,2.27,2.27,0,0,1-.24,1,1.76,1.76,0,0,0-.24,1,1.21,1.21,0,0,1,0,.37c-.07.29-.23.46-.35.48Z"/><path class="cls-5" d="M17.91,21c-.26.73,0,1.22-.33,1.83.38-.44.13-1,.47-1.76Z"/><path class="cls-4" d="M18.66,18.94l-.22-5.82s0-.11-.07-.11-.07.11-.07.11l-.22,5.82Z"/><path class="cls-5" d="M18.65,18.94l-.22-5.82s0-.09-.06-.09-.05.09-.05.09l-.22,5.82.18-5.82s0-.13.09-.13.09.08.09.13l.22,5.82Z"/><polygon class="cls-5" points="18.52 18.94 18.37 14.95 18.22 18.94 18.52 18.94"/><path class="cls-4" d="M18.92,17.06c.34-.73,0-1.33.38-2a2.5,2.5,0,0,0,.15-1.46c0-.29.26-.38.2-.45s-.31.07-.41.46.14.62-.26,1.4-.08,1.14-.49,1.84Z"/><path class="cls-5" d="M18.94,17.07l0,0a2.72,2.72,0,0,0,.19-1,2.06,2.06,0,0,1,.19-1,1.88,1.88,0,0,0,.16-1.16c0-.11,0-.21,0-.29a.6.6,0,0,1,.17-.35s0-.07,0-.08-.3.15-.38.45a1.11,1.11,0,0,0,0,.36,1.78,1.78,0,0,1-.25,1,2.31,2.31,0,0,0-.24.94,1.9,1.9,0,0,1-.24.9,2.31,2.31,0,0,0,.21-.9A2.24,2.24,0,0,1,19,15a1.69,1.69,0,0,0,.24-1,1.18,1.18,0,0,1,0-.37.62.62,0,0,1,.35-.49h0l.08,0s0,.08-.05.13a.56.56,0,0,0-.15.33,1,1,0,0,0,0,.29,2,2,0,0,1-.17,1.18,2,2,0,0,0-.19.94,2.46,2.46,0,0,1-.19,1Z"/><path class="cls-5" d="M18.83,16.88c.26-.74,0-1.22.33-1.84-.38.45-.13,1-.47,1.77Z"/><path class="cls-4" d="M18.37,18.65l-5.83.22s-.1,0-.1.07.1.08.1.08l5.83.22Z"/><path class="cls-5" d="M18.37,19.22,12.54,19s-.12,0-.12-.09.08-.09.12-.09l5.83-.22v0l-5.83.22s-.09,0-.09.05.09.06.09.06l5.83.22Z"/><polygon class="cls-5" points="18.37 18.8 14.37 18.94 18.37 19.09 18.37 18.8"/><path class="cls-4" d="M16.49,18.39c-.74-.33-1.33,0-2-.38a2.68,2.68,0,0,0-1.46-.15c-.3,0-.38-.26-.45-.2s.07.31.46.41.62-.13,1.4.27,1.14.08,1.84.48Z"/><path class="cls-5" d="M16.32,18.81a2.31,2.31,0,0,0-.91-.21,2.1,2.1,0,0,1-.95-.25,1.79,1.79,0,0,0-1-.24,1.23,1.23,0,0,1-.38,0,.66.66,0,0,1-.48-.35v0l0-.07s.08,0,.13,0a.54.54,0,0,0,.33.16l.28,0a1.93,1.93,0,0,1,1.19.17,2.07,2.07,0,0,0,.94.18,2.51,2.51,0,0,1,1,.2l0,0a2.37,2.37,0,0,0-1-.19,2,2,0,0,1-1-.19,1.93,1.93,0,0,0-1.17-.17,1,1,0,0,1-.29,0,.52.52,0,0,1-.34-.16c-.05,0-.07-.06-.09,0s.16.3.45.37a1.12,1.12,0,0,0,.36,0,1.78,1.78,0,0,1,1.05.24,2.13,2.13,0,0,0,.94.24,1.81,1.81,0,0,1,.9.25Z"/><path class="cls-5" d="M16.3,18.49c-.73-.26-1.21,0-1.83-.34.44.39,1,.13,1.77.47Z"/><path class="cls-4" d="M18.37,19.24,24.2,19s.1,0,.1-.08-.1-.07-.1-.07l-5.83-.22Z"/><path class="cls-5" d="M18.37,19.26v0L24.2,19s.09,0,.09-.06-.09-.05-.09-.05l-5.83-.22,5.83.18s.12,0,.12.09-.08.09-.12.09l-5.83.23Z"/><polygon class="cls-5" points="18.37 19.09 22.37 18.94 18.37 18.8 18.37 19.09"/><path class="cls-4" d="M20.25,19.49c.74.34,1.33.05,2,.39a2.68,2.68,0,0,0,1.46.15c.29,0,.37.26.44.2s-.07-.31-.46-.41-.61.14-1.4-.27-1.14-.08-1.84-.48Z"/><path class="cls-5" d="M24.11,20.26a.18.18,0,0,1-.1-.06.53.53,0,0,0-.32-.16l-.29,0a1.89,1.89,0,0,1-1.18-.17,2.13,2.13,0,0,0-.95-.19,2.44,2.44,0,0,1-1-.19v0a2.37,2.37,0,0,0,1,.19,2,2,0,0,1,1,.19,1.82,1.82,0,0,0,1.16.16,1.6,1.6,0,0,1,.3,0,.52.52,0,0,1,.34.16c.06,0,.07,0,.09,0s-.16-.3-.45-.37a1.12,1.12,0,0,0-.36,0,1.67,1.67,0,0,1-1-.24,2.17,2.17,0,0,0-.95-.24,1.81,1.81,0,0,1-.9-.25,2.31,2.31,0,0,0,.91.21,2.1,2.1,0,0,1,1,.25,1.78,1.78,0,0,0,1,.24,1,1,0,0,1,.38,0c.31.08.46.25.48.35h0l0,.08,0,0Z"/><path class="cls-5" d="M20.44,19.4c.73.26,1.21,0,1.83.34-.44-.39-1-.13-1.77-.47Z"/><path class="cls-4" d="M18.16,18.74,14.2,23s-.08.08,0,.13.13,0,.13,0l4.28-4Z"/><path class="cls-5" d="M14.22,23.18c-.11-.07-.06-.15,0-.18l4-4.27,0,0-4,4.27s-.06.07,0,.11.1,0,.1,0l4.28-4-4.25,4s-.05.05-.1.05Z"/><polygon class="cls-5" points="18.27 18.84 15.54 21.77 18.47 19.05 18.27 18.84"/><path class="cls-4" d="M16.65,19.88c-.75.29-1,.91-1.66,1.13a2.52,2.52,0,0,0-1.14.93c-.22.19-.46.08-.46.17s.27.17.61,0,.34-.53,1.18-.8.86-.74,1.65-.95Z"/><path class="cls-5" d="M13.59,22.22a.29.29,0,0,1-.17,0l-.05-.07c0-.06.06-.06.13-.07a.5.5,0,0,0,.34-.12l.18-.2A1.9,1.9,0,0,1,15,21a2,2,0,0,0,.8-.53,2.52,2.52,0,0,1,.86-.59l0,0a2.36,2.36,0,0,0-.85.58A2,2,0,0,1,15,21a1.77,1.77,0,0,0-.94.71,2.09,2.09,0,0,1-.19.21.51.51,0,0,1-.36.13c-.07,0-.09,0-.09,0a.52.52,0,0,0,.58-.05,1.11,1.11,0,0,0,.28-.24,1.76,1.76,0,0,1,.91-.56,2.27,2.27,0,0,0,.83-.5,1.94,1.94,0,0,1,.81-.46,2.18,2.18,0,0,0-.78.49,2.38,2.38,0,0,1-.85.5,1.79,1.79,0,0,0-.89.55,1.67,1.67,0,0,1-.28.25.94.94,0,0,1-.43.13Z"/><path class="cls-5" d="M16.58,20.08c-.7.33-.85.87-1.53,1.06.59,0,.81-.62,1.58-.92Z"/><path class="cls-4" d="M18.58,19.15l4-4.27s.08-.08,0-.13-.13,0-.13,0l-4.28,4Z"/><path class="cls-5" d="M18.59,19.16l0,0,4-4.28s.06-.06,0-.1-.11,0-.11,0l-4.28,4,4.26-4s.1-.08.15,0,0,.13,0,.16l-4,4.27Z"/><polygon class="cls-5" points="18.47 19.05 21.2 16.11 18.27 18.84 18.47 19.05"/><path class="cls-4" d="M20.09,18c.76-.28,1-.91,1.67-1.12s.91-.74,1.14-.93.45-.08.45-.17-.27-.17-.61,0-.34.53-1.18.81-.86.74-1.64.95Z"/><path class="cls-5" d="M20.1,18v0a2.29,2.29,0,0,0,.84-.58,2.14,2.14,0,0,1,.82-.54,1.81,1.81,0,0,0,.94-.71,2.09,2.09,0,0,1,.19-.21.51.51,0,0,1,.36-.13c.07,0,.09,0,.09,0s-.32-.11-.59.05a1.25,1.25,0,0,0-.27.24,1.76,1.76,0,0,1-.91.56,2.27,2.27,0,0,0-.83.5,1.88,1.88,0,0,1-.81.46,2.28,2.28,0,0,0,.78-.49,2.17,2.17,0,0,1,.85-.5,1.83,1.83,0,0,0,.9-.55,1,1,0,0,1,.28-.25.63.63,0,0,1,.59-.1l.05.08c0,.05-.06.06-.13.06a.58.58,0,0,0-.33.12,1.51,1.51,0,0,0-.19.22,1.88,1.88,0,0,1-1,.71,2.14,2.14,0,0,0-.8.54,2.52,2.52,0,0,1-.86.59Z"/><path class="cls-5" d="M20.16,17.81c.7-.34.85-.87,1.53-1.06-.59,0-.81.62-1.58.91Z"/><path class="cls-4" d="M18.58,18.74l-4.28-4s-.07-.07-.13,0,0,.13,0,.13l4,4.27Z"/><path class="cls-5" d="M18.18,19.14l-4-4.25s-.08-.1,0-.15.12,0,.16,0l4.27,4,0,0-4.28-4s-.07-.06-.1,0,0,.1,0,.1l4,4.28Z"/><polygon class="cls-5" points="18.47 18.84 15.54 16.11 18.27 19.05 18.47 18.84"/><path class="cls-4" d="M17.43,17.22c-.28-.75-.91-1-1.13-1.66s-.73-.91-.92-1.14S15.3,14,15.21,14s-.18.27,0,.61.53.34.8,1.18.75.87,1,1.65Z"/><path class="cls-5" d="M17,17.4a2.19,2.19,0,0,0-.49-.79,2.29,2.29,0,0,1-.5-.85,1.72,1.72,0,0,0-.55-.89,1.67,1.67,0,0,1-.25-.28.65.65,0,0,1-.09-.59l.08-.06s.06.07.06.13a.56.56,0,0,0,.12.34,1.51,1.51,0,0,0,.22.19,1.91,1.91,0,0,1,.71,1,2,2,0,0,0,.54.8,2.72,2.72,0,0,1,.59.87h0a2.46,2.46,0,0,0-.58-.85,2.14,2.14,0,0,1-.54-.82,1.89,1.89,0,0,0-.71-.93,1.46,1.46,0,0,1-.22-.2.61.61,0,0,1-.13-.36q0-.09,0-.09a.54.54,0,0,0,.05.59,1.59,1.59,0,0,0,.24.27,1.75,1.75,0,0,1,.57.91,2.07,2.07,0,0,0,.49.83,1.88,1.88,0,0,1,.46.82Z"/><path class="cls-5" d="M17.23,17.16c-.33-.7-.87-.85-1.06-1.54,0,.59.63.81.92,1.59Z"/><path class="cls-4" d="M18.16,19.15l4.28,4s.08.08.13,0,0-.13,0-.13l-4-4.27Z"/><path class="cls-5" d="M22.52,23.16a.13.13,0,0,1-.09,0l-4.28-4,0,0,4.28,4s.07.07.11,0,0-.11,0-.11l-4-4.27,4,4.25s.08.11,0,.15Z"/><polygon class="cls-5" points="18.27 19.05 21.2 21.77 18.47 18.84 18.27 19.05"/><path class="cls-4" d="M19.31,20.67c.28.75.91,1,1.12,1.66a2.59,2.59,0,0,0,.93,1.14c.2.22.08.45.17.45s.18-.26,0-.61S21,23,20.7,22.13s-.75-.86-1-1.64Z"/><path class="cls-5" d="M21.53,23.94c-.05,0-.06-.06-.06-.12a.52.52,0,0,0-.12-.34,1.37,1.37,0,0,0-.21-.19,1.86,1.86,0,0,1-.72-.95,2.1,2.1,0,0,0-.54-.81,2.5,2.5,0,0,1-.58-.86h0a2.41,2.41,0,0,0,.58.84,2.21,2.21,0,0,1,.54.82,1.87,1.87,0,0,0,.71.94,1.51,1.51,0,0,1,.22.19.66.66,0,0,1,.13.37c0,.06,0,.08,0,.08s.1-.32-.05-.58a1.25,1.25,0,0,0-.24-.27,1.82,1.82,0,0,1-.57-.91,2.11,2.11,0,0,0-.49-.84,1.78,1.78,0,0,1-.46-.81,2.33,2.33,0,0,0,.49.79,2.21,2.21,0,0,1,.5.85,1.72,1.72,0,0,0,.55.89,1.35,1.35,0,0,1,.25.28.65.65,0,0,1,.09.59l-.08.05Z"/><path class="cls-5" d="M19.51,20.73c.33.7.87.85,1.06,1.53,0-.58-.63-.81-.92-1.58Z"/><path class="cls-4" d="M18.1,18.83l-2,5.47s0,.1,0,.13.11-.07.11-.07l2.43-5.3Z"/><path class="cls-5" d="M16.15,24.45c-.13,0-.11-.12-.09-.16l2-5.46h0l-2,5.46s0,.09,0,.11l.08-.06,2.43-5.3-2.4,5.31a.15.15,0,0,1-.07.09Z"/><polygon class="cls-5" points="18.24 18.89 16.84 22.64 18.5 19 18.24 18.89"/><path class="cls-4" d="M17.14,20.47c-.59.55-.55,1.21-1.11,1.68a2.54,2.54,0,0,0-.69,1.29c-.14.26-.39.25-.36.33s.31.06.55-.26.12-.62.79-1.2.51-1,1.15-1.51Z"/><path class="cls-5" d="M15.07,23.83h0l-.08,0c0-.05,0-.08.09-.1a.52.52,0,0,0,.27-.25,2,2,0,0,0,.1-.27,1.87,1.87,0,0,1,.6-1,2,2,0,0,0,.54-.8,2.46,2.46,0,0,1,.57-.87l0,0a2.49,2.49,0,0,0-.56.86,2.05,2.05,0,0,1-.55.81,1.9,1.9,0,0,0-.59,1,1.28,1.28,0,0,1-.1.28.56.56,0,0,1-.28.26c-.06,0-.08,0-.07.06s.34,0,.52-.27a1.25,1.25,0,0,0,.16-.33,1.79,1.79,0,0,1,.62-.87,2.13,2.13,0,0,0,.59-.78,1.8,1.8,0,0,1,.57-.73,2.12,2.12,0,0,0-.54.75,2.37,2.37,0,0,1-.59.79,1.84,1.84,0,0,0-.62.85,1.31,1.31,0,0,1-.16.34.67.67,0,0,1-.48.31Z"/><path class="cls-5" d="M17.16,20.68c-.53.57-.46,1.13-1,1.57.53-.26.52-.89,1.12-1.46Z"/><path class="cls-4" d="M18.64,19.06l2-5.47s0-.1,0-.13-.11.08-.11.08L18.1,18.83Z"/><path class="cls-5" d="M18.66,19.06h0l2-5.47s0-.08,0-.1l-.09.06-2.43,5.3,2.4-5.31a.13.13,0,0,1,.07-.09l.1.05s0,.1,0,.1l-2,5.47Z"/><polygon class="cls-5" points="18.5 19 19.9 15.25 18.24 18.89 18.5 19"/><path class="cls-4" d="M19.6,17.41c.59-.54.55-1.21,1.11-1.67a2.54,2.54,0,0,0,.69-1.29c.14-.27.39-.25.36-.34s-.31,0-.55.27-.11.62-.79,1.19-.51,1-1.15,1.51Z"/><path class="cls-5" d="M19.61,17.43l0,0a2.59,2.59,0,0,0,.56-.86,2,2,0,0,1,.55-.81,1.87,1.87,0,0,0,.59-1,1.28,1.28,0,0,1,.1-.28.56.56,0,0,1,.28-.26c.06,0,.08,0,.07-.06s-.34,0-.52.27a1.25,1.25,0,0,0-.16.33,1.83,1.83,0,0,1-.62.87,2.15,2.15,0,0,0-.58.77,1.88,1.88,0,0,1-.58.74,2.31,2.31,0,0,0,.54-.75,2.28,2.28,0,0,1,.59-.79,1.89,1.89,0,0,0,.62-.85,1.17,1.17,0,0,1,.16-.34.63.63,0,0,1,.51-.31l.08,0c0,.05,0,.07-.09.1a.59.59,0,0,0-.27.24,1.32,1.32,0,0,0-.09.28,1.91,1.91,0,0,1-.61,1,2.1,2.1,0,0,0-.54.8,2.41,2.41,0,0,1-.57.88Z"/><path class="cls-5" d="M19.59,17.21c.52-.58.45-1.13,1-1.57-.53.26-.51.89-1.11,1.46Z"/><path class="cls-4" d="M18.48,18.67l-5.46-2s-.1,0-.13,0,.07.11.07.11l5.3,2.43Z"/><path class="cls-5" d="M18.27,19.2,13,16.8s-.11-.07-.08-.14.11-.05.15,0l5.47,2,0,0-5.46-2s-.09,0-.11,0,.07.09.07.09l5.3,2.43Z"/><polygon class="cls-5" points="18.43 18.81 14.68 17.41 18.32 19.08 18.43 18.81"/><path class="cls-4" d="M16.84,17.72c-.55-.6-1.21-.56-1.67-1.11a2.52,2.52,0,0,0-1.3-.7c-.26-.13-.24-.39-.33-.36s-.06.32.27.56.62.11,1.19.78,1,.51,1.51,1.15Z"/><path class="cls-5" d="M16.53,18a2.39,2.39,0,0,0-.76-.54A2.12,2.12,0,0,1,15,16.9a1.68,1.68,0,0,0-.85-.61,1,1,0,0,1-.33-.17.65.65,0,0,1-.32-.51l0-.07c.05,0,.08,0,.11.09a.53.53,0,0,0,.24.27l.26.08a1.91,1.91,0,0,1,1,.62,2.08,2.08,0,0,0,.8.53,2.41,2.41,0,0,1,.88.57l0,0a2.56,2.56,0,0,0-.87-.57,2.1,2.1,0,0,1-.81-.54,1.88,1.88,0,0,0-1-.6l-.27-.09a.59.59,0,0,1-.25-.29c0-.05,0-.08-.06-.07s0,.34.27.52a1.2,1.2,0,0,0,.32.16,1.83,1.83,0,0,1,.87.63,2.09,2.09,0,0,0,.78.58,1.94,1.94,0,0,1,.74.57Z"/><path class="cls-5" d="M16.63,17.73c-.57-.52-1.12-.45-1.56-1,.26.53.89.51,1.45,1.11Z"/><path class="cls-4" d="M18.26,19.21l5.47,2s.09,0,.12,0-.07-.12-.07-.12l-5.3-2.43Z"/><path class="cls-5" d="M23.79,21.27h-.07l-5.47-2,0,0,5.46,2s.09,0,.11,0-.07-.09-.07-.09l-5.3-2.43,5.32,2.4s.11.07.08.13a.08.08,0,0,1-.08.05Z"/><polygon class="cls-5" points="18.32 19.08 22.07 20.47 18.43 18.81 18.32 19.08"/><path class="cls-4" d="M19.9,20.17c.55.59,1.21.56,1.67,1.11a2.49,2.49,0,0,0,1.3.69c.26.14.24.39.33.36s.06-.31-.27-.55-.62-.11-1.19-.78-1-.51-1.51-1.16Z"/><path class="cls-5" d="M23.18,22.35s-.05,0-.08-.09a.53.53,0,0,0-.24-.27l-.27-.09a1.87,1.87,0,0,1-1-.61,2.22,2.22,0,0,0-.8-.54,2.6,2.6,0,0,1-.88-.56l0,0a2.44,2.44,0,0,0,.86.56,2.2,2.2,0,0,1,.82.55,1.89,1.89,0,0,0,1,.6,1.54,1.54,0,0,1,.28.09.58.58,0,0,1,.25.28c0,.07.05.08.06.07s0-.34-.27-.52a1,1,0,0,0-.32-.15,1.83,1.83,0,0,1-.87-.63,2.09,2.09,0,0,0-.78-.58,2,2,0,0,1-.74-.57,2.56,2.56,0,0,0,.76.54,2.12,2.12,0,0,1,.79.59,1.72,1.72,0,0,0,.85.61,1.25,1.25,0,0,1,.33.16.68.68,0,0,1,.32.52l-.05.07Z"/><path class="cls-5" d="M20.11,20.16c.57.52,1.12.45,1.56,1-.26-.53-.89-.51-1.45-1.11Z"/><path class="cls-4" d="M18.26,18.67,13,21.1s-.1,0-.07.12.13,0,.13,0l5.46-2Z"/><path class="cls-5" d="M13,21.27a.08.08,0,0,1-.08-.05c0-.06,0-.12.08-.13l5.3-2.43,0,0L13,21.12s-.09,0-.07.09.11,0,.11,0l5.46-2L13,21.26Z"/><polygon class="cls-5" points="18.32 18.81 14.68 20.47 18.43 19.08 18.32 18.81"/><path class="cls-4" d="M16.42,19.16c-.81,0-1.25.46-2,.4a2.43,2.43,0,0,0-1.4.42c-.29.09-.45-.1-.49,0s.18.26.58.21.51-.37,1.39-.3,1.08-.36,1.89-.25Z"/><path class="cls-5" d="M13,20.19a.55.55,0,0,1-.43-.15l0-.08c0-.05.08,0,.14,0A.52.52,0,0,0,13,20a1.85,1.85,0,0,0,.26-.12,1.83,1.83,0,0,1,1.16-.3,2.11,2.11,0,0,0,.94-.19,2.44,2.44,0,0,1,1-.21v0a2.63,2.63,0,0,0-1,.21,2.06,2.06,0,0,1-1,.19,1.89,1.89,0,0,0-1.14.3l-.26.13a.57.57,0,0,1-.38,0c-.07,0-.09,0-.09,0s.25.22.56.18a1.25,1.25,0,0,0,.34-.12,1.76,1.76,0,0,1,1-.17,2.16,2.16,0,0,0,1-.14,1.88,1.88,0,0,1,.93-.12,2.27,2.27,0,0,0-.91.15,2.14,2.14,0,0,1-1,.14,1.68,1.68,0,0,0-1,.17,1.39,1.39,0,0,1-.36.12Z"/><path class="cls-5" d="M16.28,19.31c-.77,0-1.11.48-1.82.39.56.19,1-.26,1.82-.24Z"/><path class="cls-4" d="M18.48,19.21l5.3-2.43s.1,0,.07-.11-.12,0-.12,0l-5.47,2Z"/><path class="cls-5" d="M18.49,19.23l0,0,5.3-2.43s.09,0,.07-.09-.11,0-.11,0l-5.46,2,5.45-2.06s.12,0,.15,0,0,.12-.08.14l-5.3,2.43Z"/><polygon class="cls-5" points="18.43 19.08 22.07 17.41 18.32 18.81 18.43 19.08"/><path class="cls-4" d="M20.32,18.73c.8,0,1.25-.47,2-.4a2.55,2.55,0,0,0,1.41-.42c.28-.09.44.1.48,0s-.18-.26-.58-.2-.51.36-1.39.29-1.09.36-1.89.25Z"/><path class="cls-5" d="M20.39,18.75h-.07v0a2.28,2.28,0,0,0,1-.21,2.17,2.17,0,0,1,1-.19A1.87,1.87,0,0,0,23.43,18l.26-.13a.51.51,0,0,1,.38,0c.07,0,.09,0,.09,0s-.25-.22-.55-.18a1.2,1.2,0,0,0-.35.12,1.78,1.78,0,0,1-1.05.17,2.19,2.19,0,0,0-1,.14,1.78,1.78,0,0,1-.93.11,2.24,2.24,0,0,0,.92-.15,2.23,2.23,0,0,1,1-.13,1.82,1.82,0,0,0,1-.18,1.2,1.2,0,0,1,.35-.12.63.63,0,0,1,.58.15l0,.09s-.08,0-.14,0a.58.58,0,0,0-.36,0l-.25.13a1.87,1.87,0,0,1-1.16.3,2,2,0,0,0-.95.19,2.71,2.71,0,0,1-.95.21Z"/><path class="cls-5" d="M20.46,18.58c.77,0,1.11-.48,1.82-.4-.56-.18-1,.27-1.81.25Z"/><path class="cls-4" d="M18.64,18.83l-2.43-5.29s0-.11-.11-.08,0,.13,0,.13l2,5.47Z"/><path class="cls-5" d="M18.12,19.05l-2.06-5.46a.13.13,0,0,1,0-.1l.1-.05a.13.13,0,0,1,.07.09l2.44,5.3h0l-2.47-5.38,0,0,0,.1,2,5.47Z"/><polygon class="cls-5" points="18.5 18.89 16.84 15.25 18.24 19 18.5 18.89"/><path class="cls-4" d="M18.16,17c0-.81-.47-1.26-.4-2a2.53,2.53,0,0,0-.43-1.4c-.09-.28.11-.45,0-.49s-.26.18-.2.58.36.52.29,1.4.36,1.08.25,1.88Z"/><path class="cls-5" d="M18.18,17h0a2.39,2.39,0,0,0-.21-1,2.08,2.08,0,0,1-.19-1,1.77,1.77,0,0,0-.3-1.13,1.85,1.85,0,0,1-.12-.26.55.55,0,0,1,0-.39c0-.06,0-.08,0-.09a.51.51,0,0,0-.18.56,1.25,1.25,0,0,0,.12.34,1.88,1.88,0,0,1,.17,1.06,2.05,2.05,0,0,0,.14,1,2,2,0,0,1,.11.92,2.16,2.16,0,0,0-.15-.91,2.07,2.07,0,0,1-.14-1,1.72,1.72,0,0,0-.17-1,1.31,1.31,0,0,1-.12-.35.66.66,0,0,1,.14-.59l.09,0c.05,0,0,.08,0,.14a.53.53,0,0,0,0,.36,1.57,1.57,0,0,0,.13.26A1.92,1.92,0,0,1,17.77,15,2.15,2.15,0,0,0,18,16a2.6,2.6,0,0,1,.22,1Z"/><path class="cls-5" d="M18,16.86c0-.78-.48-1.12-.39-1.83-.19.56.27,1,.24,1.82Z"/><path class="cls-4" d="M18.1,19.06l2.43,5.3s0,.1.11.07,0-.13,0-.13l-2-5.47Z"/><path class="cls-5" d="M20.65,24.45a.15.15,0,0,1-.13-.09l-2.43-5.3h0l2.43,5.3s0,.09.09.06,0-.1,0-.11l-2-5.46,2.07,5.45s0,.13,0,.16Z"/><polygon class="cls-5" points="18.24 19 19.9 22.64 18.5 18.89 18.24 19"/><path class="cls-4" d="M18.58,20.89c0,.81.47,1.25.4,2a2.63,2.63,0,0,0,.42,1.41c.1.28-.1.44,0,.49s.26-.19.2-.59-.36-.51-.29-1.39-.36-1.08-.25-1.88Z"/><path class="cls-5" d="M19.38,24.77c-.05,0,0-.08,0-.14a.52.52,0,0,0,0-.36,1.51,1.51,0,0,0-.13-.25A1.94,1.94,0,0,1,19,22.86a2.18,2.18,0,0,0-.19-.95,2.6,2.6,0,0,1-.22-1h0a2.41,2.41,0,0,0,.21,1,2,2,0,0,1,.19,1A1.87,1.87,0,0,0,19.3,24a1.5,1.5,0,0,1,.12.27.53.53,0,0,1,0,.38c0,.06,0,.08,0,.09a.52.52,0,0,0,.17-.56,1,1,0,0,0-.12-.34,1.88,1.88,0,0,1-.17-1.06,2.2,2.2,0,0,0-.13-1A1.86,1.86,0,0,1,19,20.9a2.37,2.37,0,0,0,.15.91,2.07,2.07,0,0,1,.14,1,1.74,1.74,0,0,0,.17,1,1.31,1.31,0,0,1,.12.35.66.66,0,0,1-.14.59Z"/><path class="cls-5" d="M18.74,21c0,.77.48,1.12.39,1.82.19-.56-.27-1-.24-1.81Z"/><path class="cls-4" d="M18.37,16.57A2.38,2.38,0,1,1,16,18.94a2.37,2.37,0,0,1,2.37-2.37Z"/><path class="cls-5" d="M18.37,21.34a2.4,2.4,0,1,1,2.39-2.4,2.4,2.4,0,0,1-2.39,2.4Zm0-4.75a2.36,2.36,0,1,0,2.36,2.35,2.36,2.36,0,0,0-2.36-2.35Z"/><path class="cls-5" d="M19.87,18.43a.94.94,0,0,0-1.24-.14.76.76,0,0,0,.05,1,.11.11,0,0,0-.07,0,1.28,1.28,0,0,1-.1-1,.89.89,0,0,1,1.36.18Z"/><path class="cls-5" d="M19.21,18.32a.48.48,0,0,0-.4.15c-.11.09-.16.07-.18.09s0,.07,0,.06a2.18,2.18,0,0,0,.22-.15.46.46,0,0,1,.33-.09c.33,0,.51.27.55.25a.59.59,0,0,0-.55-.31Z"/><path class="cls-5" d="M19.63,18.63a.56.56,0,0,0-.86,0h.07a.42.42,0,0,1,.66,0v0Z"/><path class="cls-5" d="M19.17,18.45a.18.18,0,0,1,.17.17.17.17,0,0,1-.17.16.16.16,0,0,1-.16-.16.17.17,0,0,1,.16-.17Z"/><path class="cls-5" d="M18.77,18.65a.72.72,0,0,0,.86,0H19.5a.48.48,0,0,1-.66,0v0Z"/><path class="cls-5" d="M19.65,18.72a.75.75,0,0,1-.81.12c-.18-.12-.18-.15-.14-.15s.07,0,.22.11a.91.91,0,0,0,.73-.08Z"/><path class="cls-5" d="M18.76,19.27a.12.12,0,0,1,.06.14.11.11,0,0,1-.14.07.1.1,0,0,1-.07-.1.28.28,0,0,1-.24.15h0l0,0a.42.42,0,0,0,.22,0,.17.17,0,1,0,.17-.26Z"/><path class="cls-5" d="M19,20c-.16-.11-.23-.28-.42-.28a.62.62,0,0,0-.18.06h0l0,.05c.07,0,.18-.08.31,0s.2.14.29.18Z"/><path class="cls-5" d="M18.92,20a1,1,0,0,0-.55,0h0l0,.08c.14,0,.22-.11.55,0Z"/><path class="cls-5" d="M19,20c-.4,0-.27.2-.6.2h0l0,.05c.4,0,.22-.21.6-.25Z"/><path class="cls-5" d="M18.7,20.62a.33.33,0,0,0-.66,0,.33.33,0,0,1,.41-.24.32.32,0,0,1,.25.24Z"/><path class="cls-5" d="M16.87,18.43a1,1,0,0,1,1.25-.14.77.77,0,0,1-.06,1s.06,0,.07,0a1.2,1.2,0,0,0,.09-1,.88.88,0,0,0-1.35.18Z"/><path class="cls-5" d="M17.53,18.32a.48.48,0,0,1,.4.15.45.45,0,0,0,.19.09s0,.07,0,.06a2.18,2.18,0,0,1-.22-.15.46.46,0,0,0-.33-.09c-.33,0-.51.27-.55.25a.61.61,0,0,1,.55-.31Z"/><path class="cls-5" d="M17.11,18.63a.56.56,0,0,1,.86,0h-.08a.41.41,0,0,0-.65,0v0Z"/><path class="cls-5" d="M17.57,18.45a.18.18,0,0,0-.17.17.17.17,0,0,0,.17.16.16.16,0,0,0,.16-.16.17.17,0,0,0-.16-.17Z"/><path class="cls-5" d="M18,18.65a.72.72,0,0,1-.86,0h.13a.47.47,0,0,0,.65,0v0Z"/><path class="cls-5" d="M17.09,18.72a.73.73,0,0,0,.8.12c.19-.12.19-.15.15-.15s-.07,0-.22.11a.91.91,0,0,1-.73-.08Z"/><path class="cls-5" d="M18,19.27a.11.11,0,0,0-.07.14.11.11,0,0,0,.14.07.1.1,0,0,0,.07-.1.27.27,0,0,0,.24.15h0l0,0a.4.4,0,0,1-.22,0,.17.17,0,0,1-.27-.19.16.16,0,0,1,.11-.07Z"/><path class="cls-5" d="M17.77,20c.16-.11.23-.28.42-.28l.18.06h0l0,.05c-.07,0-.18-.08-.31,0s-.2.14-.29.18Z"/><path class="cls-5" d="M17.82,20a1,1,0,0,1,.55,0h0l0,.08c-.15,0-.22-.11-.55,0Z"/><path class="cls-5" d="M17.77,20c.4,0,.27.2.6.2h0l0,.05c-.4,0-.22-.21-.6-.25Z"/><path class="cls-5" d="M18,20.62a.33.33,0,0,1,.66,0,.33.33,0,0,0-.41-.24.32.32,0,0,0-.25.24Z"/></g><path class="cls-6" d="M1.31,11.82H36a18.64,18.64,0,0,0-34.7,0Z"/><path class="cls-6" d="M1.53,26.07a18.67,18.67,0,0,0,34.26,0Z"/></g></g></svg>