<svg xmlns="http://www.w3.org/2000/svg" viewBox="0 0 37.55 37.55"><defs><style>.cls-1{fill:#fff;}.cls-2{fill:#003498;}.cls-3{fill:#f01e14;}</style></defs><g id="Capa_2" data-name="Capa 2"><g id="Layer_1" data-name="Layer 1"><path class="cls-1" d="M18.77,0h0V19.7H37.5c0-.31,0-.61,0-.93A18.78,18.78,0,0,0,18.77,0Z"/><path class="cls-2" d="M0,18.77c0,.32,0,.62.05.93H18.77V0A18.78,18.78,0,0,0,0,18.77Z"/><polygon class="cls-1" points="10.48 7.08 11.49 10.28 14.85 10.25 12.12 12.2 13.18 15.38 10.48 13.39 7.78 15.38 8.84 12.2 6.11 10.25 9.47 10.28 10.48 7.08"/><path class="cls-3" d="M.05,19.7a18.75,18.75,0,0,0,37.45,0Z"/></g></g></svg>