<svg xmlns="http://www.w3.org/2000/svg" viewBox="0 0 37.55 37.55"><defs><style>.cls-1{fill:#ffcf00;}.cls-2{fill:none;}.cls-3{fill:#003498;}.cls-4{fill:#f00823;}</style></defs><g id="Capa_2" data-name="Capa 2"><g id="Layer_1" data-name="Layer 1"><path class="cls-1" d="M37.55,18.77A18.78,18.78,0,0,0,0,18.77c0,.46,0,.91.07,1.36H37.48C37.51,19.68,37.55,19.23,37.55,18.77Z"/><path class="cls-2" d="M37.55,18.77A18.78,18.78,0,0,0,0,18.77c0,.46,0,.91.07,1.36H37.48C37.51,19.68,37.55,19.23,37.55,18.77Z"/><path class="cls-3" d="M37.48,20.13H.07A18.58,18.58,0,0,0,3,28.84H34.6A18.58,18.58,0,0,0,37.48,20.13Z"/><path class="cls-4" d="M3,28.84a18.73,18.73,0,0,0,31.65,0Z"/></g></g></svg>