<?xml version="1.0" encoding="utf-8"?>
<!-- Generator: Adobe Illustrator 24.1.2, SVG Export Plug-In . SVG Version: 6.00 Build 0)  -->
<svg version="1.1" xmlns="http://www.w3.org/2000/svg" xmlns:xlink="http://www.w3.org/1999/xlink" x="0px" y="0px"
	 viewBox="0 0 79.8 20.7" style="enable-background:new 0 0 79.8 20.7;" xml:space="preserve">
<style type="text/css">
	.st0{fill:#FFFFFF;}
</style>
<g id="Logo">
</g>
<g id="Iso">
	<path class="st0" d="M8.4,14.8c0,3.8-1.4,5.6-5,5.6H0V0.7h3.3c3.5,0,4.8,1.3,4.8,4.9c0,2.3-0.6,3.8-2.2,4.4
		C7.7,10.6,8.4,12,8.4,14.8z M2.4,2.6v6.9h0.8c2,0,2.5-1,2.5-3.6S5.1,2.6,3.1,2.6L2.4,2.6z M6,14.9c0-2.8-0.7-3.7-2.7-3.7H2.4v7.4
		h0.9C5.3,18.6,6,17.5,6,14.9z"/>
	<path class="st0" d="M16,6l-0.2,2.7c-1.2-0.4-2.5,0.2-3,1.4v10.4h-2.4V6.1h1.8l0.3,2.7l0,0c0.5-2,1.7-3,2.8-3
		C15.5,5.8,15.8,5.9,16,6z"/>
	<path class="st0" d="M24.3,10.7v9.8h-1.8l-0.3-1.6c-0.4,1.2-1.6,1.9-2.8,1.9c-1.7,0-3-1.2-3-3.3c0-2.7,1.7-4.4,5.5-5.4v-1.3
		c0-2.1-0.3-3-1.4-3s-1.6,0.9-1.6,3.1l-2.1-0.2c-0.3-3.1,1-4.7,3.9-4.7C23.4,5.9,24.3,7.5,24.3,10.7z M22,17.8v-4.5
		c-2.2,0.6-3.1,1.9-3.1,3.6c0,1.2,0.4,2,1.4,2C21,18.9,21.6,18.5,22,17.8z"/>
	<path class="st0" d="M34.5,9.7v10.8h-2.4V9.9c0-1.5-0.4-2.2-1.3-2.2c-0.8,0-1.4,0.5-1.8,1.1v11.6h-2.4V6.1h1.9l0.3,1.7l0,0
		c0.6-1.2,1.8-2,3.1-2C33.8,5.9,34.5,7.2,34.5,9.7z"/>
	<path class="st0" d="M44.8,0v20.4h-1.9l-0.3-1.9h-0.1c-0.4,1.2-1.6,2.1-2.9,2.1c-2.1,0-2.9-1.7-2.9-5.9V12c0-4.2,1-6.1,3.1-6.1
		c1.1,0,2.1,0.5,2.6,1.4h0.1c-0.1-1.1-0.1-2-0.1-2.9V0H44.8z M42.4,17.3V8.7c-0.3-0.6-1-1-1.6-1c-1.2,0-1.6,1.1-1.6,4.5v2.3
		c0,3.2,0.4,4.3,1.5,4.3C41.4,18.9,42,18.3,42.4,17.3z"/>
	<path class="st0" d="M46.8,14.6v-2.7c0-4.3,1.1-6,4-6c1-0.1,2,0.3,2.7,1c0.7,0.8,1,2.3,0.8,4.2l-2.2,0.2c0-2.8-0.3-3.7-1.4-3.7
		s-1.5,1-1.5,4v3.1c0,3.2,0.3,4.2,1.5,4.2s1.5-1,1.5-3.6l2.2,0.1c0.1,2.2-0.3,3.6-1.1,4.4c-0.7,0.6-1.7,0.9-2.6,0.9
		C47.8,20.7,46.8,19.1,46.8,14.6z"/>
	<path class="st0" d="M63.5,10.7v9.8h-1.8l-0.3-1.6c-0.4,1.2-1.6,1.9-2.8,1.9c-1.7,0-3-1.2-3-3.3c0-2.7,1.7-4.4,5.5-5.4v-1.3
		c0-2.1-0.3-3-1.4-3s-1.7,0.9-1.6,3.1L56,10.6c-0.3-3.1,1-4.7,3.9-4.7C62.6,5.9,63.5,7.5,63.5,10.7z M61.2,17.8v-4.5
		c-2.1,0.6-3,1.9-3,3.6c0,1.2,0.4,2,1.4,2C60.3,18.9,60.9,18.4,61.2,17.8z"/>
	<path class="st0" d="M65.4,16.1h2.1C67.3,18,67.9,19,69.1,19c0.8,0,1.5-0.6,1.5-1.4c0-0.1,0-0.1,0-0.2c0-1.2-0.8-1.9-2.6-3.4
		c-1.7-1.3-2.6-2.4-2.6-4.5c0-2.3,1.3-3.5,3.7-3.5c2.7,0,3.7,1.4,3.4,4.7l-2.1,0.1c0-2.2-0.3-3-1.4-3c-0.8-0.1-1.5,0.5-1.5,1.3
		c0,0.1,0,0.2,0,0.3c0,1.1,0.5,1.7,2,2.9c2.3,1.8,3.3,2.8,3.3,4.8c0,2.5-1.4,3.7-3.8,3.7C66.1,20.7,65,19.1,65.4,16.1z"/>
	<path class="st0" d="M79.8,20c-0.8,0.4-1.6,0.6-2.5,0.6c-1.8,0-2.3-0.8-2.3-3.3V8.1h-1.3V6.1h1.4l0.4-4.1h1.8v4.1h2.3v1.9h-2.3v9
		c0,1.4,0.2,1.7,0.8,1.7c0.4,0,0.8-0.1,1.3-0.2L79.8,20z"/>
</g>
</svg>
