<?xml version="1.0" encoding="utf-8"?>
<!-- Generator: Adobe Illustrator 24.1.2, SVG Export Plug-In . SVG Version: 6.00 Build 0)  -->
<svg version="1.1" xmlns="http://www.w3.org/2000/svg" xmlns:xlink="http://www.w3.org/1999/xlink" x="0px" y="0px"
	 viewBox="0 0 32.9 23" style="enable-background:new 0 0 32.9 23;" xml:space="preserve">
<style type="text/css">
	.st0{fill:#FF0000;}
	.st1{fill:#FFFFFF;}
</style>
<g id="Logo">
	<path class="st0" d="M32.2,3.6c-0.4-1.4-1.5-2.5-2.9-2.9C26.7,0,16.4,0,16.4,0S6.2,0,3.6,0.7C2.2,1.1,1.1,2.2,0.7,3.6
		C0.2,6.2,0,8.8,0,11.5c0,2.7,0.2,5.3,0.7,7.9c0.4,1.4,1.5,2.5,2.9,2.9C6.2,23,16.4,23,16.4,23s10.3,0,12.8-0.7
		c1.4-0.4,2.5-1.5,2.9-2.9c0.5-2.6,0.7-5.3,0.7-7.9C32.9,8.8,32.6,6.2,32.2,3.6z"/>
	<polygon class="st1" points="13.1,16.4 21.7,11.5 13.1,6.6 	"/>
</g>
<g id="Iso">
</g>
</svg>
