<svg width="100" height="23" viewBox="0 0 100 23" fill="none" xmlns="http://www.w3.org/2000/svg">
<g clip-path="url(#clip0)">
<path d="M31.1 3.5C30.7 2.1 29.7 1.1 28.3 0.7C25.8 0 15.9 0 15.9 0C15.9 0 5.9 0 3.5 0.7C2.1 1 1 2.1 0.7 3.5C0 5.9 0 11.1 0 11.1C0 11.1 0 16.3 0.7 18.7C1.1 20.1 2.1 21.1 3.5 21.5C6 22.2 15.9 22.2 15.9 22.2C15.9 22.2 25.8 22.2 28.3 21.5C29.7 21.1 30.7 20.1 31.1 18.7C31.8 16.2 31.8 11.1 31.8 11.1C31.8 11.1 31.7 5.9 31.1 3.5ZM16.8 13.5L12.7 15.9V6.3L20.9 11.1L16.8 13.5Z" fill="#909090"/>
<path d="M52.5002 9.1C52.2002 8.2 51.8002 7.5 51.1002 7.1C50.5002 6.7 49.7002 6.5 48.6002 6.5C47.6002 6.5 46.7002 6.7 46.1002 7.1C45.5002 7.5 45.0002 8.2 44.7002 9.1C44.4002 10 44.2002 11.2 44.2002 12.7V14.7C44.2002 16.2 44.3002 17.4 44.6002 18.3C44.9002 19.2 45.3002 19.9 45.9002 20.3C46.5002 20.7 47.4002 20.9 48.5002 20.9C49.6002 20.9 50.4002 20.7 51.1002 20.3C51.7002 19.9 52.2002 19.2 52.5002 18.3C52.8002 17.4 52.9002 16.2 52.9002 14.7V12.7C53.0002 11.1 52.8002 10 52.5002 9.1ZM49.8002 15.8C49.8002 16.8 49.7002 17.6 49.5002 18C49.3002 18.5 49.0002 18.7 48.6002 18.7C48.2002 18.7 47.9002 18.5 47.7002 18C47.5002 17.5 47.5002 16.8 47.5002 15.8V11.5C47.5002 10.5 47.6002 9.8 47.8002 9.3C48.0002 8.8 48.3002 8.6 48.7002 8.6C49.1002 8.6 49.4002 8.8 49.6002 9.3C49.8002 9.8 49.9002 10.5 49.9002 11.5V15.8H49.8002Z" fill="#909090"/>
<path d="M38.3999 20.6H41.4999V14.4L45.0999 1.5H41.9999L40.6999 7.4C40.2999 9.1 40.0999 10.3 39.9999 11.1H39.8999C39.6999 10.1 39.4999 8.9 39.1999 7.4L37.9999 1.6H34.8999L38.4999 14.5V20.6H38.3999Z" fill="#909090"/>
<path d="M59.9 17.7C59.8 18 59.6 18.2 59.3 18.3C59.1 18.5 58.8 18.5 58.5 18.5C58.2 18.5 58 18.4 57.8 18.1C57.7 17.8 57.6 17.4 57.6 16.8V6.70001H54.5V17.1C54.5 18.4 54.7 19.3 55.2 19.9C55.6 20.5 56.3 20.8 57.2 20.8C58.5 20.8 59.5 20.2 60.2 18.9H60.3L60.6 20.6H63V6.70001H59.9V17.7Z" fill="#909090"/>
<path d="M70.7002 6.70001V17.1C70.7002 18.4 70.9002 19.3 71.4002 19.9C71.8002 20.5 72.5002 20.8 73.4002 20.8C74.7002 20.8 75.7002 20.2 76.4002 18.9H76.5002L76.8002 20.6H79.2002V6.70001H76.0002V17.7C75.9002 18 75.7002 18.2 75.4002 18.3C75.2002 18.5 74.9002 18.5 74.6002 18.5C74.3002 18.5 74.1002 18.4 73.9002 18.1C73.8002 17.8 73.7002 17.4 73.7002 16.8V6.70001H70.7002Z" fill="#909090"/>
<path d="M65.3998 20.6H68.4998V4.09998H71.5998V1.59998H62.2998V4.09998H65.3998V20.6Z" fill="#909090"/>
<path d="M83.9001 19.3C84.2001 19.8 84.6001 20.1 85.1001 20.4C85.6001 20.7 86.1001 20.8 86.7001 20.8C87.8001 20.8 88.5001 20.3 89.0001 19.3C89.5001 18.3 89.7001 16.8 89.7001 14.7V12.5C89.7001 10.9 89.6001 9.70002 89.4001 8.80002C89.3001 8.00002 89.0001 7.40002 88.6001 7.00002C88.2001 6.60002 87.6001 6.40002 86.9001 6.40002C86.3001 6.40002 85.8001 6.60002 85.3001 6.90002C84.8001 7.20002 84.4001 7.70002 84.1001 8.20002V0.900024H81.1001V20.6H83.7001L83.9001 19.3ZM84.0001 9.90002C84.1001 9.50002 84.3001 9.20002 84.5001 9.00002C84.8001 8.80002 85.0001 8.60002 85.3001 8.60002C85.6001 8.60002 85.9001 8.70002 86.0001 9.00002C86.2001 9.20002 86.3001 9.70002 86.4001 10.3C86.5001 10.9 86.5001 11.7 86.5001 12.8V14.6C86.5001 15.6 86.5001 16.4 86.4001 17C86.3001 17.6 86.2001 18 86.0001 18.2C85.8001 18.4 85.5001 18.6 85.2001 18.6C84.9001 18.6 84.7001 18.5 84.5001 18.4C84.3001 18.3 84.1001 18.1 84.0001 17.9V9.90002Z" fill="#909090"/>
<path d="M99.5001 14.7V12.3C99.5001 10.8 99.4001 9.70002 99.1001 8.90002C98.9001 8.00002 98.5001 7.40002 97.9001 7.00002C97.3001 6.60002 96.5001 6.40002 95.4001 6.40002C93.8001 6.40002 92.7001 6.90002 92.1001 7.80002C91.5001 8.80002 91.1001 10.3 91.1001 12.4V14.8C91.1001 16.8 91.4001 18.3 92.0001 19.3C92.6001 20.3 93.7001 20.8 95.2001 20.8C96.5001 20.8 97.5001 20.5 98.2001 19.8C98.9001 19.2 99.3001 18.2 99.3001 16.9C99.3001 16.7 99.3001 16.5 99.3001 16.4L96.6001 16.2C96.6001 17 96.5001 17.7 96.3001 18C96.1001 18.4 95.8001 18.5 95.3001 18.5C95.0001 18.5 94.7001 18.4 94.5001 18.2C94.3001 18 94.2001 17.7 94.2001 17.2C94.1001 16.8 94.1001 16.1 94.1001 15.2V14.5H99.5001V14.7ZM94.2001 11.8C94.2001 10.9 94.2001 10.2 94.3001 9.80002C94.4001 9.40002 94.5001 9.00002 94.6001 8.80002C94.8001 8.60002 95.0001 8.50002 95.3001 8.50002C95.6001 8.50002 95.9001 8.60002 96.0001 8.80002C96.2001 9.00002 96.3001 9.30002 96.3001 9.80002C96.4001 10.3 96.4001 10.9 96.4001 11.8V12.8H94.1001V11.8H94.2001Z" fill="#909090"/>
</g>
<defs>
<clipPath id="clip0">
<rect width="99.5" height="22.2" fill="white"/>
</clipPath>
</defs>
</svg>
