<svg width="20" height="20" viewBox="0 0 20 20" fill="none" xmlns="http://www.w3.org/2000/svg">
<path fill-rule="evenodd" clip-rule="evenodd" d="M10 0C4.475 0 0 4.475 0 10C0 15.525 4.475 20 10 20C15.525 20 20 15.525 20 10C20 4.475 15.525 0 10 0ZM9 17V15H11V17H9ZM12.17 10.175L13.065 9.255C13.645 8.675 14 7.88 14 7C14 4.79 12.21 3 10 3C7.79 3 6 4.79 6 7H8C8 5.895 8.895 5 10 5C11.105 5 12 5.895 12 7C12 7.55 11.775 8.05 11.415 8.41L10.17 9.67C9.45 10.395 9 11.395 9 12.5V13H11C11 11.5 11.45 10.895 12.17 10.175Z" fill="#909090"/>
</svg>
