<svg xmlns="http://www.w3.org/2000/svg" viewBox="0 0 117.01 23"><defs><style>.cls-1{fill:#212121;}.cls-2{fill:red;}.cls-3{fill:#fff;}</style></defs><g id="Capa_2" data-name="Capa 2"><g id="Layer_1" data-name="Layer 1"><path class="cls-1" d="M45.66,15.79c0,3.81-1.38,5.64-5,5.64H37.23V1.72H40.5C44,1.72,45.31,3,45.31,6.6c0,2.33-.59,3.76-2.21,4.45C44.94,11.61,45.66,13,45.66,15.79ZM39.58,3.57v6.91h.8c1.95,0,2.54-1,2.54-3.59s-.57-3.32-2.57-3.32ZM43.2,15.89c0-2.82-.68-3.74-2.68-3.74h-.94v7.42h.92C42.56,19.57,43.2,18.52,43.2,15.89Z"/><path class="cls-1" d="M53.21,7,53,9.68a2.47,2.47,0,0,0-3,1.39V21.43H47.64V7.14h1.81l.26,2.68h0c.45-2,1.67-3,2.82-3A2.6,2.6,0,0,1,53.21,7Z"/><path class="cls-1" d="M61.53,11.66v9.77H59.72l-.26-1.62a2.94,2.94,0,0,1-2.82,1.88c-1.74,0-3-1.17-3-3.34,0-2.7,1.71-4.44,5.5-5.4V11.68c0-2.14-.26-3-1.39-3s-1.64.87-1.62,3.08L54,11.56c-.26-3.12,1-4.65,3.87-4.65C60.59,6.91,61.53,8.46,61.53,11.66Zm-2.35,7.16V14.36C57,15,56.12,16.24,56.12,18c0,1.23.4,2,1.37,2A2.12,2.12,0,0,0,59.18,18.82Z"/><path class="cls-1" d="M71.77,10.67V21.43H69.38V10.93c0-1.51-.38-2.24-1.3-2.24a2.25,2.25,0,0,0-1.81,1.13V21.43H63.85V7.14h1.86L66,8.86h0a3.5,3.5,0,0,1,3.07-2C71,6.89,71.77,8.2,71.77,10.67Z"/><path class="cls-1" d="M82,1V21.43H80.14l-.31-1.86h-.07a3.17,3.17,0,0,1-2.91,2.1c-2.12,0-2.94-1.67-2.94-5.9V13c0-4.21,1-6.11,3.13-6.11a2.94,2.94,0,0,1,2.63,1.43h.09c-.09-1.1-.14-2-.14-2.93V1ZM79.62,18.31V9.73a1.92,1.92,0,0,0-1.64-1c-1.2,0-1.62,1.13-1.62,4.51v2.28c0,3.22.37,4.3,1.48,4.3C78.59,19.86,79.22,19.27,79.62,18.31Z"/><path class="cls-1" d="M84.06,15.56V12.88c0-4.35,1.13-6,4-6a3.29,3.29,0,0,1,2.7,1c.73.82,1,2.3.83,4.23l-2.17.19c0-2.8-.3-3.69-1.38-3.69s-1.51,1-1.51,4v3.15c0,3.17.29,4.16,1.46,4.16s1.5-1,1.5-3.6l2.17.12c.07,2.16-.26,3.6-1.08,4.37a3.71,3.71,0,0,1-2.64.85C85,21.67,84.06,20.14,84.06,15.56Z"/><path class="cls-1" d="M100.77,11.66v9.77H99l-.26-1.62a2.94,2.94,0,0,1-2.82,1.88c-1.74,0-3-1.17-3-3.34,0-2.7,1.72-4.44,5.5-5.4V11.68c0-2.14-.26-3-1.38-3s-1.65.87-1.63,3.08l-2.16-.17c-.26-3.12,1-4.65,3.88-4.65C99.83,6.91,100.77,8.46,100.77,11.66Zm-2.35,7.16V14.36c-2.14.63-3,1.88-3,3.59,0,1.23.4,2,1.36,2A2.1,2.1,0,0,0,98.42,18.82Z"/><path class="cls-1" d="M102.6,17.08l2.1,0c-.15,1.92.4,2.91,1.62,2.91a1.48,1.48,0,0,0,1.5-1.67c0-1.17-.8-1.92-2.63-3.38-1.69-1.29-2.59-2.42-2.59-4.47,0-2.3,1.27-3.52,3.72-3.52,2.68,0,3.69,1.41,3.45,4.68l-2.09.09c0-2.21-.31-3-1.41-3a1.43,1.43,0,0,0-1.53,1.6c0,1.13.5,1.74,2,2.92C109.09,15,110,16,110,18c0,2.52-1.41,3.71-3.8,3.71C103.31,21.71,102.21,20.09,102.6,17.08Z"/><path class="cls-1" d="M117,21a5.87,5.87,0,0,1-2.49.57c-1.79,0-2.28-.83-2.28-3.27V9.05h-1.32V7.14h1.41l.36-4.08h1.83V7.14h2.32V9.05h-2.25v9c0,1.41.19,1.69.82,1.69a4.61,4.61,0,0,0,1.25-.21Z"/><path class="cls-2" d="M32.17,3.59A4.13,4.13,0,0,0,29.26.68C26.7,0,16.42,0,16.42,0S6.15,0,3.59.69A4.1,4.1,0,0,0,.68,3.59,43.16,43.16,0,0,0,0,11.5a42.55,42.55,0,0,0,.69,7.91A4.11,4.11,0,0,0,3.6,22.32C6.15,23,16.42,23,16.42,23s10.27,0,12.84-.69a4.13,4.13,0,0,0,2.91-2.91,42.55,42.55,0,0,0,.69-7.91A42.46,42.46,0,0,0,32.17,3.59Z"/><polygon class="cls-3" points="13.13 16.43 21.68 11.5 13.13 6.57 13.13 16.43"/></g></g></svg>